<svg id="Layer_1" data-name="Layer 1" xmlns="http://www.w3.org/2000/svg" viewBox="0 0 70 25"><defs><style>.cls-1{fill:#e0e0e0;}</style></defs><title>Artboard 1</title><g id="logo_ocm" data-name="logo ocm"><g id="Group_1981" data-name="Group 1981"><path id="Path_6211" data-name="Path 6211" class="cls-1" d="M32.85,20.11A8.57,8.57,0,0,1,29.53,17a9.26,9.26,0,0,1,0-9.13,8.44,8.44,0,0,1,3.32-3.16A10.53,10.53,0,0,1,41.6,4.3a8,8,0,0,1,3,2.25L42.07,8.9a5.45,5.45,0,0,0-4.3-2,5.66,5.66,0,0,0-2.82.69A4.94,4.94,0,0,0,33,9.53a6.15,6.15,0,0,0,0,5.67,4.94,4.94,0,0,0,1.93,1.94,5.66,5.66,0,0,0,2.82.69,5.42,5.42,0,0,0,4.3-2l2.54,2.35a8,8,0,0,1-3,2.28,10,10,0,0,1-4,.78A9.26,9.26,0,0,1,32.85,20.11Z"/><path id="Path_6212" data-name="Path 6212" class="cls-1" d="M62.8,21l0-10.27-5,8.46H56l-5-8.24V21h-3.7V3.84h3.27l6.38,10.64L63.21,3.84h3.24L66.5,21Z"/></g><g id="Group_1983" data-name="Group 1983"><ellipse id="Ellipse_137" data-name="Ellipse 137" class="cls-1" cx="14.78" cy="12.54" rx="4.64" ry="4.66"/><g id="Group_1982" data-name="Group 1982"><path id="Path_6213" data-name="Path 6213" class="cls-1" d="M26.05,11.57s0-.08,0-.12l0-.36,0-.22,0-.23q0-.14,0-.29s0,0,0-.06-.06-.33-.1-.49v0c0-.16-.08-.32-.13-.48l0-.07c0-.15-.09-.29-.14-.44s0-.07,0-.11-.09-.25-.14-.38a1.1,1.1,0,0,0-.07-.16c0-.1-.08-.2-.13-.3s-.18-.39-.28-.57l0,0c-.1-.19-.2-.37-.31-.54l0-.07-.29-.45L24,6l-.27-.36-.17-.21L23.31,5l-.19-.21-.3-.3-.23-.21-.29-.26L22,3.86l-.28-.22-.17-.12v0A10.08,10.08,0,0,1,23.3,9.22c0,4.94-3.35,9-7.51,9a10.68,10.68,0,0,0,6.35.09,9.92,9.92,0,0,0,1.66-.64,3.19,3.19,0,0,0,1.63-1.79h0v0l.13-.37a.56.56,0,0,1,0-.12c0-.09.06-.19.08-.28s.06-.22.08-.33,0,0,0-.07a10.89,10.89,0,0,0,.28-2.62A4.58,4.58,0,0,0,26.05,11.57Z"/><path id="Path_6214" data-name="Path 6214" class="cls-1" d="M13.84,1.26h-.12l-.36,0-.22,0-.23,0-.29,0h-.06c-.16,0-.33,0-.48.09h0l-.47.1-.07,0-.43.13-.11,0-.39.12L10.42,2l-.3.12-.58.25,0,0a5.94,5.94,0,0,0-.55.3l-.07,0L8.44,3l-.24.16-.37.26-.22.16-.35.28L7.07,4c-.11.09-.21.19-.31.29s-.15.14-.22.22l-.27.29L6,5.05l-.22.27-.13.16h0a10,10,0,0,1,5.7-1.54c4.93.14,8.83,3.62,8.77,7.78a10.87,10.87,0,0,0,.27-6.37,10.33,10.33,0,0,0-.59-1.68A3.24,3.24,0,0,0,18.13,2h0l-.37-.14-.12,0-.28-.09L17,1.6l-.06,0a11.72,11.72,0,0,0-2.6-.33Z"/><path id="Path_6215" data-name="Path 6215" class="cls-1" d="M3.5,12.79v.12c0,.12,0,.24,0,.36s0,.14,0,.22a1.93,1.93,0,0,0,0,.24l0,.29s0,0,0,.06,0,.33.07.49v0l.09.49a.18.18,0,0,0,0,.07c0,.15.07.3.11.45l0,.11c0,.13.07.26.11.39a1,1,0,0,1,0,.16c0,.1.07.2.11.3s.15.4.24.59l0,0,.28.56,0,.07c.08.16.17.31.26.46l.15.24.25.38c0,.07.1.15.16.22l.27.36.18.22c.09.11.18.22.28.32l.21.23.28.28.25.24a2.75,2.75,0,0,0,.27.23l.16.13v0A10,10,0,0,1,6.11,15.3c.31-4.92,3.91-8.7,8.06-8.49a10.73,10.73,0,0,0-6.33-.52,10.24,10.24,0,0,0-1.7.53A3.2,3.2,0,0,0,4.39,8.51h0v0l-.15.37a.56.56,0,0,0,0,.12l-.1.27L4,9.62a.18.18,0,0,0,0,.07,11.15,11.15,0,0,0-.44,2.6C3.5,12.46,3.5,12.62,3.5,12.79Z"/><path id="Path_6216" data-name="Path 6216" class="cls-1" d="M15.09,23.75h.12l.36,0,.22,0,.24,0,.29,0h.06l.48-.08h0l.48-.11.07,0,.43-.12.11,0,.38-.13.16-.06.3-.12.58-.26,0,0,.55-.29.07,0,.45-.28.24-.15c.13-.08.25-.17.37-.26l.22-.16.35-.28.22-.18c.11-.09.21-.19.31-.29s.15-.14.22-.22l.27-.29c.09-.1.16-.17.23-.26l.23-.27.13-.16h0a10,10,0,0,1-5.71,1.49c-4.93-.18-8.8-3.69-8.71-7.86a10.81,10.81,0,0,0,.26,8.06A3.2,3.2,0,0,0,10.82,23h0l.37.14.12,0,.28.09.33.1.07,0a10.67,10.67,0,0,0,2.6.37Z"/></g></g></g></svg>