<?xml version="1.0" encoding="utf-8"?>
<!-- Generator: Adobe Illustrator 21.1.0, SVG Export Plug-In . SVG Version: 6.00 Build 0)  -->
<svg version="1.1" id="Layer_1" xmlns="http://www.w3.org/2000/svg" xmlns:xlink="http://www.w3.org/1999/xlink" x="0px" y="0px"
	 viewBox="0 0 113 25" style="enable-background:new 0 0 113 25;" xml:space="preserve">
<style type="text/css">
	.st0{fill:#4C84FF;}
	.st1{fill:#FF9933;}
	.st2{fill:#FF5331;}
	.st3{fill:#00A4FF;}
	.st4{fill:#175AAA;}
	.st5{fill:#4980F8;}
	.st6{fill:#FFFFFF;}
	.st7{font-family:'Roboto-Medium';}
	.st8{font-size:9px;}
</style>
<g id="Logo_ocm" transform="translate(130 -138)">
	<g id="Logo_ocm-2" transform="translate(1392 20)">
		<g id="Group_1981" transform="translate(27.583 2.521)">
			<path id="Path_6211" class="st0" d="M-1517,136.4c-1.5-0.8-2.8-2-3.7-3.5c-1.8-3.1-1.8-7,0-10.1c0.9-1.5,2.2-2.7,3.7-3.5
				c3-1.5,6.6-1.7,9.7-0.4c1.3,0.6,2.4,1.4,3.3,2.5l-2.8,2.6c-1.2-1.4-2.9-2.2-4.8-2.2c-1.1,0-2.2,0.2-3.1,0.8
				c-0.9,0.5-1.7,1.3-2.1,2.2c-1,2-1,4.3,0,6.3c0.5,0.9,1.2,1.7,2.1,2.2c1,0.5,2,0.8,3.1,0.8c1.9,0,3.6-0.8,4.8-2.3l2.8,2.6
				c-0.9,1.1-2.1,2-3.4,2.5c-1.4,0.6-2.9,0.9-4.5,0.9C-1513.6,137.7-1515.4,137.3-1517,136.4z"/>
			<path id="Path_6212" class="st0" d="M-1483.7,137.4l0-11.4l-5.6,9.4h-2l-5.6-9.2v11.2h-4.1v-19h3.6l7.1,11.8l7-11.8h3.6l0.1,19
				H-1483.7z"/>
		</g>
		<g id="Group_1983">
			<ellipse id="Ellipse_137" class="st0" cx="-1509.5" cy="130.5" rx="5.2" ry="5.2"/>
			<g id="Group_1982">
				<path id="Path_6213" class="st1" d="M-1496.9,129.5c0,0,0-0.1,0-0.1l0-0.4c0-0.1,0-0.2,0-0.2c0-0.1,0-0.2,0-0.3
					c0-0.1,0-0.2-0.1-0.3c0,0,0,0,0-0.1c0-0.2-0.1-0.4-0.1-0.5c0,0,0,0,0,0c0-0.2-0.1-0.4-0.1-0.5c0,0,0-0.1,0-0.1
					c0-0.2-0.1-0.3-0.2-0.5c0,0,0-0.1,0-0.1c0-0.1-0.1-0.3-0.2-0.4c0-0.1,0-0.1-0.1-0.2c0-0.1-0.1-0.2-0.1-0.3
					c-0.1-0.2-0.2-0.4-0.3-0.6c0,0,0,0,0,0c-0.1-0.2-0.2-0.4-0.3-0.6c0,0,0-0.1,0-0.1c-0.1-0.2-0.2-0.3-0.3-0.5
					c-0.1-0.1-0.1-0.2-0.2-0.3l-0.3-0.4c-0.1-0.1-0.1-0.2-0.2-0.2c-0.1-0.1-0.2-0.3-0.3-0.4c-0.1-0.1-0.1-0.2-0.2-0.2l-0.3-0.3
					c-0.1-0.1-0.2-0.2-0.3-0.2c-0.1-0.1-0.2-0.2-0.3-0.3c-0.1-0.1-0.2-0.2-0.3-0.2l-0.3-0.2c-0.1,0-0.1-0.1-0.2-0.1c0,0,0,0,0,0
					c1.2,1.9,1.9,4.1,1.9,6.3c0,5.5-3.7,10-8.3,10c2.3,0.7,4.7,0.8,7.1,0.1c0.6-0.2,1.3-0.4,1.8-0.7c0.8-0.4,1.5-1.1,1.8-2v0
					c0,0,0,0,0,0c0-0.1,0.1-0.3,0.1-0.4c0,0,0-0.1,0-0.1c0-0.1,0.1-0.2,0.1-0.3c0-0.1,0.1-0.2,0.1-0.4c0,0,0-0.1,0-0.1
					c0.2-1,0.3-1.9,0.3-2.9C-1496.9,129.8-1496.9,129.7-1496.9,129.5z"/>
				<path id="Path_6214" class="st2" d="M-1510.5,118c0,0-0.1,0-0.1,0c-0.1,0-0.3,0-0.4,0c-0.1,0-0.2,0-0.2,0l-0.3,0
					c-0.1,0-0.2,0-0.3,0c0,0,0,0-0.1,0c-0.2,0-0.4,0.1-0.5,0.1c0,0,0,0,0,0c-0.2,0-0.4,0.1-0.5,0.1c0,0,0,0-0.1,0
					c-0.2,0-0.3,0.1-0.5,0.1c0,0-0.1,0-0.1,0c-0.1,0-0.3,0.1-0.4,0.1c-0.1,0-0.1,0-0.2,0.1l-0.3,0.1c-0.2,0.1-0.4,0.2-0.6,0.3
					c0,0,0,0,0,0c-0.2,0.1-0.4,0.2-0.6,0.3c0,0-0.1,0-0.1,0c-0.2,0.1-0.3,0.2-0.5,0.3c-0.1,0.1-0.2,0.1-0.3,0.2
					c-0.1,0.1-0.3,0.2-0.4,0.3c-0.1,0.1-0.2,0.1-0.2,0.2c-0.1,0.1-0.3,0.2-0.4,0.3c-0.1,0.1-0.2,0.1-0.2,0.2
					c-0.1,0.1-0.2,0.2-0.3,0.3c-0.1,0.1-0.2,0.2-0.2,0.2c-0.1,0.1-0.2,0.2-0.3,0.3l-0.3,0.3c-0.1,0.1-0.2,0.2-0.2,0.3
					c0,0.1-0.1,0.1-0.1,0.2c0,0,0,0,0,0c1.9-1.2,4.1-1.8,6.3-1.7c5.5,0.2,9.8,4,9.7,8.6c0.8-2.3,0.9-4.7,0.3-7.1
					c-0.2-0.6-0.4-1.3-0.7-1.9c-0.4-0.9-1.1-1.5-1.9-1.9h0c0,0,0,0,0,0c-0.1-0.1-0.3-0.1-0.4-0.2c0,0-0.1,0-0.1,0
					c-0.1,0-0.2-0.1-0.3-0.1l-0.4-0.1c0,0-0.1,0-0.1,0c-0.9-0.2-1.9-0.4-2.9-0.4C-1510.1,118-1510.3,118-1510.5,118z"/>
				<path id="Path_6215" class="st3" d="M-1522,130.8v0.1c0,0.1,0,0.3,0,0.4c0,0.1,0,0.2,0,0.2c0,0.1,0,0.2,0,0.3c0,0.1,0,0.2,0,0.3
					c0,0,0,0,0,0.1c0,0.2,0,0.4,0.1,0.5c0,0,0,0,0,0c0,0.2,0.1,0.4,0.1,0.5c0,0,0,0.1,0,0.1c0,0.2,0.1,0.3,0.1,0.5c0,0,0,0.1,0,0.1
					c0,0.1,0.1,0.3,0.1,0.4c0,0.1,0,0.1,0.1,0.2c0,0.1,0.1,0.2,0.1,0.3c0.1,0.2,0.2,0.4,0.3,0.7c0,0,0,0,0,0
					c0.1,0.2,0.2,0.4,0.3,0.6c0,0,0,0.1,0,0.1c0.1,0.2,0.2,0.3,0.3,0.5l0.2,0.3c0.1,0.1,0.2,0.3,0.3,0.4c0.1,0.1,0.1,0.2,0.2,0.2
					l0.3,0.4c0.1,0.1,0.1,0.2,0.2,0.2c0.1,0.1,0.2,0.2,0.3,0.4c0.1,0.1,0.2,0.2,0.2,0.3c0.1,0.1,0.2,0.2,0.3,0.3
					c0.1,0.1,0.2,0.2,0.3,0.3c0.1,0.1,0.2,0.2,0.3,0.3l0.2,0.1c0,0,0,0,0,0c-1.1-1.9-1.6-4.2-1.5-6.4c0.3-5.5,4.3-9.7,9-9.4
					c-2.2-0.9-4.7-1.1-7-0.6c-0.6,0.1-1.3,0.3-1.9,0.6c-0.9,0.3-1.6,1-1.9,1.9c0,0,0,0,0,0c0,0,0,0,0,0c0,0,0,0,0,0
					c-0.1,0.1-0.1,0.3-0.2,0.4c0,0,0,0.1,0,0.1c0,0.1-0.1,0.2-0.1,0.3c0,0.1-0.1,0.2-0.1,0.4c0,0,0,0.1,0,0.1
					c-0.3,0.9-0.4,1.9-0.5,2.9C-1522,130.5-1522,130.6-1522,130.8z"/>
				<path id="Path_6216" class="st4" d="M-1509.1,143h0.1c0.1,0,0.3,0,0.4,0c0.1,0,0.2,0,0.2,0l0.3,0c0.1,0,0.2,0,0.3,0
					c0,0,0,0,0.1,0c0.2,0,0.4-0.1,0.5-0.1c0,0,0,0,0,0c0.2,0,0.4-0.1,0.5-0.1c0,0,0.1,0,0.1,0c0.2,0,0.3-0.1,0.5-0.1
					c0,0,0.1,0,0.1,0c0.1,0,0.3-0.1,0.4-0.1c0.1,0,0.1,0,0.2-0.1l0.3-0.1c0.2-0.1,0.4-0.2,0.6-0.3c0,0,0,0,0,0
					c0.2-0.1,0.4-0.2,0.6-0.3c0,0,0.1,0,0.1,0c0.2-0.1,0.3-0.2,0.5-0.3l0.3-0.2c0.1-0.1,0.3-0.2,0.4-0.3c0.1-0.1,0.2-0.1,0.2-0.2
					c0.1-0.1,0.3-0.2,0.4-0.3c0.1-0.1,0.2-0.1,0.2-0.2c0.1-0.1,0.2-0.2,0.3-0.3c0.1-0.1,0.2-0.2,0.2-0.2c0.1-0.1,0.2-0.2,0.3-0.3
					s0.2-0.2,0.3-0.3c0.1-0.1,0.2-0.2,0.3-0.3c0-0.1,0.1-0.1,0.1-0.2c0,0,0,0,0,0c-1.9,1.2-4.1,1.8-6.3,1.7
					c-5.5-0.2-9.8-4.1-9.7-8.7c-1.1,2.9-1,6.1,0.3,9c0.4,0.9,1.1,1.5,1.9,1.9h0c0,0,0,0,0,0c0.1,0.1,0.3,0.1,0.4,0.2
					c0,0,0.1,0,0.1,0c0.1,0,0.2,0.1,0.3,0.1s0.2,0.1,0.4,0.1c0,0,0.1,0,0.1,0c0.9,0.3,1.9,0.4,2.9,0.4
					C-1509.5,143-1509.3,143-1509.1,143z"/>
			</g>
		</g>
	</g>
	<path class="st5" d="M-24.5,143h-23c-4.1,0-7.5,3.4-7.5,7.5s3.4,7.5,7.5,7.5h23c4.1,0,7.5-3.4,7.5-7.5S-20.4,143-24.5,143z"/>
	<text transform="matrix(1 0 0 1 -47 154)" class="st6 st7 st8">BETA</text>
</g>
</svg>
